<svg xmlns="http://www.w3.org/2000/svg" viewBox="0 0 486 486"><defs><style>.cls-1{fill:#f2795b;}.cls-2{fill:#1e201f;}</style></defs><g id="Layer_2" data-name="Layer 2"><g id="Layer_7" data-name="Layer 7"><path class="cls-1" d="M412.78,69.14l-6.38,6.38a234.16,234.16,0,0,1,46.66,270.71l6.71,6.71a243.2,243.2,0,0,0-47-283.8ZM436.26,375A233.77,233.77,0,0,1,243,477C113.77,477,9,372.23,9,243S113.77,9,243,9a234.19,234.19,0,0,1,59.06,7.52l7.15-7.39A243.09,243.09,0,0,0,243,0C108.79,0,0,108.79,0,243S108.79,486,243,486A242.78,242.78,0,0,0,447.07,375Z"/><path class="cls-2" d="M425.22,375a225.76,225.76,0,0,1-113,82.16q-3.21,1-6.45,2H180.24A225.51,225.51,0,0,1,53.5,364.36V121.64a226,226,0,0,1,95.63-83.18V360.69A14.31,14.31,0,0,0,163.44,375Z"/><path class="cls-2" d="M451.39,362.37H323.52L164.75,198.69a14.23,14.23,0,0,1-.8-21.48l0,0L316.15,20.08H444L286.54,177.56h-.06a14.2,14.2,0,0,0-.12,20h.18l.46.46.87.87Z"/></g></g></svg>